<?xml version="1.0" encoding="utf-8"?>
<!-- Generator: Adobe Illustrator 21.1.0, SVG Export Plug-In . SVG Version: 6.00 Build 0)  -->
<svg version="1.1" id="_x2014_ÎÓÈ_x5F_2" xmlns="http://www.w3.org/2000/svg" xmlns:xlink="http://www.w3.org/1999/xlink"
	 x="0px" y="0px" viewBox="0 0 1463.3 357.7" style="enable-background:new 0 0 1463.3 357.7;" xml:space="preserve">
<style type="text/css">
	.st0{fill:#FFFFFF;}
</style>
<g>
	<path class="st0" d="M49.3,331.2c0,0,0.8,5.7,1.5,7.5c0.7,1.8,0.7,2.7,0.4,3.1c-0.3,0.4-1.6,4.1,1.1,4.9c2.7,0.8,14.9,1.2,17.8,0.5
		c0,0,4.5-1.5,4.8-2.5c0.3-1,0.3-1.9-3.3-2.2c-3.6-0.3-10.9-3.4-10.9-3.4s-0.4-20.8-1.5-24.2c0,0,2.3-6.7,1.9-8.6
		c0,0-4-13.4-4.8-14.6c0,0,0.4-1,0.4-2.9c0,0-0.7-9.2-1.8-11.1c-1.1-1.9-1.8-1.2-1.8-1.2s5.1-7.3,6.2-14c1.1-6.7,3.1-21.9-10.5-35.3
		l0.1-1.6c0,0,3,1.2,6.7,0.3c0,0,1.6-1,1.9-2.1l1.5-1.4l0.7-1.9c0,0,3.7-3.3,2.2-5.9c0,0-1.4-3.8,0.7-5.2c0,0,4-7.9-2.3-15.2
		c0,0-8.6-9-20.4-8.2c0,0-12.7,3-12.4,17.2c0,0,1,5.6,3.1,9.6c0,0,2.9,4.9,1.1,8.5c0,0-4.5,4.5-7.8,12.6c0,0-3,7.3-3.1,10
		c0,0-1.2,3.7,3.4,8.1l3.4,1.9l-1,3.6c0,0-5.6,0.4-7.5,3c0,0-0.7,2.1,0.1,2.3c0,0-0.1,2.9,1.8,3.6c0,0,0.8,0.1,1-1.2
		c0,0,5.2,0.7,6.3-0.4l1.1,0.1l-0.1,1.1c0,0-5.1,0.3-7.8,6.6c0,0-6.6,12-1.2,20.8l1.1,1.8l0.4,7.9c0,0-0.4,4-1.6,4.4
		c0,0-5.9,1-10.4,8.3c0,0-4.1,7.4-5.5,8.9c0,0-3.4-0.3-4.1,3c0,0,0.3,1.8,0.5,4.1c0,0,0.4,4.8,0.1,7.1c0,0,1,4.1,2.5,6.2
		c0,0,4.1,2.7,7.4,3c0,0,3.4,0.7,3.6-1c0,0-1.5-3.7-1.8-5.3c0,0-1.8-7.3-0.3-9.9c0,0,6-9.8,14.5-14.2c0,0,5.5-2.1,7.4-5.7l3.3-9.3
		c0,0,2.1,0.4,4.8,0c0,0,3.8,4.2,5.1,7.3c0,0,1.8,3.6,1.1,4c0,0-2.7,5.2-0.1,13.3L49.3,331.2z"/>
	<path class="st0" d="M214.3,329.3c0,0,10.9,18.1,12.7,19.9c0,0,7.6-0.8,10.4,0c0,0,1.7-2-0.6-5.1l-3.6-4.9l-2.8-4.9
		c0,0,7.4-10,13.5-14l12.3-8.4c0,0,6.9-3.1,5.9-9.2l0.8-4.3l3.6-0.3l0.3-4.3l2,4.6l-0.8,1.8l4.1,0.8h3.3c0,0-4.1,11-3.6,21.7v7.7
		l-1.5,2c0,0-2,4.1-1.5,6.9l2.3,2.3c0,0,23,1.8,26.6,1l4.1-0.8c0,0-3.3-7.2-11.5-10l-8.4-0.8c0,0,5.9-19.3,5.1-24.6
		c0,0,2.8-5.5,1.3-10.1h2.6c0,0-1.3-18.3-7.5-24.1l-1.3-3.8l2.7-0.6l0.5-20.2l6.9,1.8c0,0,6.9,5.6,7.7,7.9c0,0,3.3,1.8-0.5-6.6
		c0,0,4.6,1.5,4.6,6.6c0,0,1.5,1.8,1.5-1.5c0,0-1.3-6.1-3.8-7.4c0,0,4.6,0.3,7.9,4.9c0,0,1.3-0.8-0.3-4.9c0,0-3.3-3.3-9.4-4.9
		l-11.8-7.4l-3.3-31.9c0,0-3.6-9.7-5.6-12.5l-3.9-3l0.1-2.3c0,0,3.5,1.5,6.8,0.5c0,0,1.8-1.8,1.8-4.3l1.2-2.4l0.1-3l3.2-1.5
		l-1.8-5.9c0,0-0.6-4.3,1.6-6.5c0,0,1.3-9.2-4.4-14.7c-8.8-8.4-22.7-10.5-29.6-0.1c-6.8,10.2-2,16.8,0.3,21.9c0,0,2.9,2.9,5.2,4.7
		l0.8,4.5l-1.9,2.7c0,0-8.1,7.2-11.1,19.7c0,0-6.5,49-9.1,57.1l-2.3,13c0,0-1.3,1.5,10.5,0c0,0-5.4,14.8-4.3,21.7l4.9,1.5
		c0,0,1.8,2.3-2.6,7.9c0,0-6.9,0-21.2,20.2C223.3,323.5,214.1,321.2,214.3,329.3z"/>
	<path class="st0" d="M405.9,316c0,0,3.8,10.9,5.7,12.8c0,0,6.1,1.8,6.5,9.7c0,0,6.9,12.1,15.8,16.6c0,0,4.2-3.8,4.9-6.7
		c0,0-2.2-8.1-3.8-9.7c0,0,3.8-3.8,4.7-6.3c0,0,2.2-2.2,5.9-3.4c0,0,10.5-7.9,16-16.4c0,0,8.5-11.1,13.6-15.2
		c0,0,15.2-18.8,17.4-22.1l7.9-10.3c0,0,4.9,5.7,6.7,12.4c0,0,1.3,8.7,3.6,13.4c0.1,0.3,0.3,0.5,0.4,0.8c2.6,4.5,2.2,4.3,4.3,10.1
		c0,0,3.8,5.5,5.9,7.3c2,1.8,0.2,1.8-0.2,4.9c-0.4,3-2.6,4.3-1,5.9c1.6,1.6,1.4,4,1.4,4.7c0,0.6,0,4.3,0,4.3l1,14
		c0,0,9.9,0.8,13,0.8c0.6,0,3-4.1,7.7,0.2c0,0,19-0.2,24.5-3.8c0,0-0.4-8.5-13.2-8.3l-3.8-8.3c0,0,2.2-5.5-1.8-8.5
		c-4-3-5.5-6.9-5.5-10.1c0-3.2-3.8-22.9-3.8-25.3s0.8-5.7-0.8-10.9c-1.6-5.3-3-11.5-5.9-15.4c-2.8-3.8-3.6-3.8-4.7-5.7
		c-1-1.8-2.2-7.9-4.3-8.5c-2-0.6-2.2-2.8-2.8-4.9c-0.6-2-2.4-6.9-2.4-6.9s-0.2-9.9,0.4-13.4c0.6-3.4,3-11.7,3-11.7s8.1,3.6,10.3,4
		c2.2,0.4,7.5-0.4,9.1,1.6c0,0,1.2,1.4,2.6-0.4c1.4-1.8,0.8,0.2,0.8,0.2s2.8-4.9,2.8-6.5c0,0,1.6-1.4,1.8-2.8
		c0.2-1.4-0.4-5.1-6.3-4.9c0,0-8.9,0.4-11.9,2.4c0,0-2,0.6-3-0.8l-4.9-4c0,0,4.3-19.6-3-34c0,0-2.3-6-8.2-11.3l0.2-1.1
		c0,0,9,2.6,10.8,0.7c0,0,0.5-2.3,0.4-3.5c-0.2-1.2,0.9-2.1,1.4-2.1c0.5,0-0.4-1.6-1.4-1.9c0,0,2.3-2.1,3-2.3l-0.5-2.1l2.5-2.1
		c0,0,0.2-1.4-0.7-2.3c0,0-2.5-3.7-0.4-5.3c0,0,1.6-6.5-0.7-10.8c0,0,1.6-2.6,0.7-3.7c-0.9-1.1-0.2-2.1-2.8-3.7
		c-2.7-1.6-3.7-0.5-5.7-2.1c-1.9-1.6-5.8-0.5-7.8-2.8c-1.9-2.3-6.4-1.1-13.8,0.7s-11.3,11.3-11.3,15.7c0,4.4,6.7,19.9,8.9,21.7
		l1.2-0.2l-0.7,3.2c0,0-11.6,2.2-12.2,4c-0.6,1.8-12.4,3-13,4.9c0,0-10.1,16-9.5,22.7c0,0,1,15.8,1,23.1c0,0,1,19,17.4,22.5
		c0,0-2.2,13.8-4.9,29.2c0,0-2.4,15-5.7,19.6c0,0-10.7,7.1-14,10.5c-3.2,3.4-6.7,7.5-9.9,10.5c-3.2,3-9.7,8.3-13,12.4
		c-3.2,4-6.9,7.9-8.3,8.3C421.9,309.3,407.5,314,405.9,316z"/>
	<path class="st0" d="M711.7,318.2c0,0,3.4,5.3,0.9,10.2c0,0-6.8,10.8-0.9,16.4c0,0,20.8,1.9,27,1.9c0,0,24.5-0.3,26-2.8
		c0,0,2.8-5.3-7.4-6.8c0,0-12.7-1.2-16.1-6.8c0,0-3.7-8.1-1.5-11.2c0,0,5.3-5.6,4-16.4c0,0-7.1-31.9-5.9-35c1.2-3.1,1.9-3.4,2.8-5.6
		c0.9-2.2,1.2-26,1.2-30.7c0-4.6,0.9-18,0.9-20.5c0-2.5,2.5-0.6,2.5-0.6s-3.1-41.5-2.2-45.6l10.8-0.6c0,0,7.7,2.2,11.8,1.9
		c0,0,6.5-3.1,9-4.6c0,0,3.1-2.8,2.8-3.7c-0.3-0.9-0.3-0.9-0.3-0.9l11.2-8.1c0,0,0.6-3.4,0.3-5l-13.9,11.2c0,0,0.6-4.6-2.2-5
		c0,0-8.7-3.1-13.3-1.9c0,0-12.4,0-14.6-2.2c0,0-0.3-20.8-0.6-23.6c-0.3-2.8,6.8-17.4,6.8-17.4s-9.6-11.8-13.3-13.9l-1.9-2.2
		l1.2-4.3c0,0,3.4,0,4.6,1.5c0,0,1.9,4.3,4,4.6c0,0,4-0.9,4.3-3.1l1.9-0.6l1.2-1.5l1.2-0.3l0.6-1.9l4.6-0.3l-0.3-5.6l1.5-5
		c0,0,1.9,2.8,1.9,5c0,0,2.8,0.3,3.7-4c0,0,1.2,5.9,1.2,7.4c0,0,5.9-14.6,3.7-24.2c-2.2-9.6-14.3-26.3-33.8-16.4
		c-19.5,9.9-14.9,24.5-16.7,34.1l2.5,0.9l-4.3,5.3c0,0-16.4,8.7-19.5,14.3l-2.2,4.3c0,0-20.1,10.2-23.2,16.7c0,0-4,17.7-5,20.8
		c0,0-6.8,16.1-6.5,23.6c0.3,7.4,0.9,19.8,5.3,24.8c4.3,5,21.7,9.9,25.1,10.8c3.4,0.9,4.3,10.2,4,17c-0.3,6.8-2.2,14.9-0.3,19.2
		c1.9,4.3,6.5,12.7,6.5,12.7s1.5,5.6-3.7,10.2c0,0-39.1,35-44.3,36.6c-5.3,1.5-16.1,5-20.1,9c-4,4,5.6,14.6,9.6,19.5
		c4,5,4,16.1,17,23.2c0,0,8.1,2.2,8.1-4.6c0-1.2-4.3-13.6-6.5-18c0,0,13.8-8.3,22.6-13.6c1.5-0.9,20.5-18.3,22.9-22.3
		C708.6,284.7,708.9,311.4,711.7,318.2z"/>
	<g>
		<path class="st0" d="M999.4,147.1l0.6,0.1C1000,147.2,999,146.7,999.4,147.1z"/>
		<path class="st0" d="M1026.7,339.8c0,0-14.1-0.2-18.2-2.3c0,0-8.5-3.7-11.8-11.8c0,0-6-19.6-6.6-22.1s-6.8-8.7-7.9-9.7
			c-1-1-1.4-3.9-1.2-6.4c0.2-2.5-3.3-8.9-3.7-11.2c-0.4-2.3-3.5-9.3-4.1-11.4c-0.6-2.1,2.3-5.4,1.9-8.7c-0.4-3.3-3.3-15.5-3.3-20.7
			s-2.1-36.6-2.1-36.6l10.5-0.6c0,0,4.1-0.2,4.8-3.3c0.6-3.1-7.2-38-6.6-42.4l7,6c0,0,5.6,1,6.2-1.2c0.6-2.3,3.1,0.2,3.7,2.1
			l4.5,4.3c0,0,1.2,0.6,1.7-1.9l1.2-8.3c0,0,1-3.9-1.9-5.8c-0.8-0.5-1.2-0.8-1.4-1l-6.2-1.5v-1.7c0,0-11.4-10.3-18.8-14.7
			c0,0-10.1-39.5-16.3-47.5c0,0-4.1-11.2-4.5-11.8c-0.4-0.6-5.2-10.3-5.2-10.3s1-8.1,1.2-9.1c0,0,5.8-0.4,9.9-1.2
			c0,0,2.3-2.3,0.4-5.4l-0.4-2.1l0.6-2.9l0.4-4.5c0,0,2.8-0.8,3.1-1.7c0.3-0.9-0.6-2.3-1.4-3.1c-0.8-0.8-0.8-0.8-0.8-0.8l-3.7-3.1
			c0,0,0.4-3.7,0-5l-2.3-6.2c0,0,3.5-2.7,1.4-5.6c0,0-12.6-15.5-32.2-5.8c0,0-15.7,9.9-4.5,30.4l6.4,9.7l0.2,3.5
			c0,0-2.1,5.6-3.5,6.2c0,0-9.5,2.9-12.2,8.7c0,0-7.4,10.5-8.1,15.1c0,0-2.1,10.7-2.1,13.8c0,3.1-1,8.7-1,8.7s-2.7,3.5-1,8.7
			c0,0,0.6,7.2,0.4,8.7c-0.2,1.4-3.1,10.1-2.3,15.3c0.8,5.2-0.2,27.9-0.2,27.9l-6.6,34.9l6.8,1.9c0,0-7.6,5.4-8.9,9.1l-21.9-7.9
			c0,0-3.3,0.4-4.3,2.9L842.4,254c0,0-1.4,4.1,2.9,5.8l31.6,9.9l-5,15.1c0,0-2.7,13.8-4.5,15.9c-1.9,2.1-6.6,8.9-6.6,8.9
			s-3.1,8.1-4.8,11.4c-1.7,3.3-4.8,20.7-4.8,20.7s13.6,5.4,17.1,6c0,0,3.3-3.1,6.2-0.4c0,0,4.3,3.3,7.2,3.3l20.7-1.4
			c0,0,3.3-1.9,4.8-3.1c1.4-1.2-1-3.9-2.9-5c-1.9-1-13.8-0.6-13.8-0.6l-6.8-9.3c0,0,1.7-3.3,2.1-4.1c0.4-0.8,0-9.5,0-9.5
			s18-22.7,21.5-34.9l0.8-1.7l7.6,3.3c0,0,4.8,2.7,7.4-1.2l12.6-31.4l13.6,27.9l18.6,44.4c0,0,4.8,6,4.5,8.5c-0.2,2.5-0.6,12,0,13.8
			c0.2,0.6,2.7,5.4,2.7,5.4s33.3,4.1,46.5-1.9l7.9-4.1C1029.6,345.6,1028.5,340,1026.7,339.8z M902.7,211.9l-8.5-3.7
			c0,0,0-4.1,3.7-3.7l6.2,3.9L902.7,211.9z"/>
	</g>
	<path class="st0" d="M1153,245.1l7,12.2c0,0,2.1,4.6,3,6.7c0.9,2.1,2.7,7.9,4.3,10c1.5,2.1,4,7.9,4.9,11c0.9,3,1.5,6.4,3.7,10
		c2.1,3.7,3.7,11.6,5.8,14c2.1,2.4,9.4,14.3,10.1,17.4c0.6,3-2.7,4.6-3,7.6c-0.3,3,1.5,7.9,1.5,10.1c0,2.1-0.6,10-0.6,10
		s17.4,2.1,18.6,1.2c1.2-0.9,4-0.9,5.2-0.9c1.2,0,12.5-2.1,17.4-3.4c4.9-1.2,14.3-4.6,14.3-4.6s1.2-6.1-0.9-7
		c-2.1-0.9-11.3,0-13.4-0.6c-2.1-0.6-4-2.7-5.2-3c-1.2-0.3-3.7-1.5-3.7-1.5s-6.1-4.3-6.7-5.8c-0.6-1.5-2.4-12.2-2.4-12.2l-8.5-35.9
		l-4.3-11.6l-1.5-9.4l2.1-6.4l-0.6-2.1l-1.5-8.2l-1.8-4.3l-1.5-6.4l-2.1-12.2l-0.6-4.9l0.6-4.9l-1.5-6.7l0.6-4c0,0,0.3,1.2,2.7,0
		c2.4-1.2,3,0.9,4,0.3c0.9-0.6,4.6-1.8,4.9-5.2c0.3-3.3-1.8-5.8-3.7-7.3c-1.8-1.5-8.8-5.2-8.8-5.2l-1.2-5.5c0,0-3.3-7.6-3.3-8.8
		c0-1.2,5.5-6.1,6.7-11c1.2-4.9,2.4-19.8-1.8-29.2c0,0,0.6-10.4,0.6-14.9c0-4.6-5.8-26.2-6.4-28.3c-0.6-2.1-0.6-2.1-0.6-2.1l4.3-10
		l-2.7-3.7c0,0,3-6.7,8.5-7.6c0,0,2.4,0.3,2.1-4l0.3-1.8l-0.9-1.5l1.5-0.9l1.2-3.3c0,0,1.2-1.5,2.1-0.9c0,0,2.4-0.6,1.8-3.7
		l-1.5-3.7l0.6-1.8l0.3-5.8c0,0,6.1-0.3,10-1.5l1.8-3.4l-12.8-4.9c0,0-6.4-8.5-11.6-10.1c-5.2-1.5-11.6-3.7-18.9,0
		c-7.3,3.7-13.1,11-12.8,20.7c0.3,9.7,0,11.6,0.3,14c0.3,2.4-5.2,6.1-5.2,6.1s-10,2.1-18,18.3c0,0-6.1,11.3-7.9,29.5
		c0,0-0.3,21.6-1.2,23.5c-0.9,1.8-2.7,8.2-3.3,11c-0.6,2.7-0.6,6.1,0,10c0.6,4,0.6,7.9-1.2,10.7c-1.8,2.7-4.3,4-7.9,12.2
		c-3.7,8.2,0,24.1,0.6,32.3c0.6,8.2,0.3,11.6,0,15.8c-0.3,4.3-1.5,10-3.3,15.5c-1.8,5.5-6.1,22.2-7.9,26.2c-1.8,4-8.5,13.4-8.5,16.4
		c0,3-2.4,16.8-2.4,16.8s-1.5,10.7-2.1,14.9c-0.6,4.3-9.7,11.6-9.4,12.5c0.3,0.9-0.3,10.7-0.3,10.7l-4.9,6.7l8.5,7.6
		c0,0,6.1,0.6,7.9,3.3c1.8,2.7,16.4,3.7,30.8,2.1c0,0,2.1-4.3-0.3-6.7c-2.4-2.4-12.5-4-14.6-10.7l3.3-8.2c0,0-1.2-5.8,0.6-9.1
		c1.8-3.3,11-13.1,11-13.1S1142.3,272.5,1153,245.1z"/>
	<path class="st0" d="M1320.4,340.9c0,0-2,5.5-2.2,6.7c-0.2,1.2-1.4,7.9-1.4,7.9l7.7,2h13.7l16,0.2l6.1-0.2c0,0,0.8-5.3-0.8-6.9
		c-1.6-1.6-9.3-3.6-9.3-3.6l1.8-13.5l13.7-31.3l3.2,26.9l2.6,2.2l-0.6,5.3l-2,3.2c0,0-1.4-1-1.8,2.6c-0.4,3.6-0.4,11.3-0.4,11.3
		s28.3-1,28.9-1.2c0.6-0.2,22.8-0.6,22.8-0.6l1.6-1.8l-1.2-5.3c0,0-12.7-1.6-15.2-3c0,0-6.7-11.1-8.5-12.9c0,0,0-3.6,0.8-5.3
		c0,0,5.3-5.5,6.1-8.5c0.8-3,0.8-21,1-25.5c0.2-4.4-2-23-2.2-27.7c-0.2-4.6-5.1-21-5.1-23.6c0-2.6,0-6.7,0.4-8.1
		c0.4-1.4,0.8-14.3,0.8-14.3s1.6,1.8,2.8-0.2c1.2-2-2.4-22-2.4-22l-1.4-12.7l7.3,18.6l23.4,58.6l30.1,77.2l-1,1.6l1.8,4
		c0,0,4.6,1.6,5.7-1.8l-2.2-4.9l-1,0.4l-20.2-52.5l-19.6-51.1L1399,178l1.4-0.2c0,0,1,1,2.6,0.4c1.6-0.6,2.2-3.8,2.2-3.8l2.6-1
		c0,0,1.4,2,0.6,7.7c0,0,1.4,4,3.6,0.8c0,0,1.8-8.1-2-13.3c0,0-0.4-1.8-4.2-5.5c0,0-0.6-2-5.9-1.2l-5.9,0.4c0,0,0.8-9.3-3.4-20.8
		c0,0-5.5-24.7-9.7-32.1l-5.5-13.3v-4.6c0,0,5.5,1.8,9.5-2.4c0,0,3.4-2.4,2.6-8.9l-0.4-1.8l-1.2-1.4l1.6-1.4c0,0,2.2-3.4,1.2-4.6
		c0,0,0.8,0.6,2.4-1c0,0,2-1.2,0.6-5.1l-2-4.4c0,0,0-3.2,1-3.8l-0.2-4.8c0,0,3.6-0.4,3.6-2.4s-1-9.3-19.6-14.8c0,0-4.9,0-6.9-0.6
		c-2-0.6-6.9-1-10.1-0.4c-3.2,0.6-7.3,0.8-7.7,3.2c-0.4,2.4-0.8,5.5-0.6,6.9c0.2,1.4,0.2,4.6,0.2,4.6s-2.4,12.5-0.8,15.6l1.4,3
		c0,0-6.3,1-6.3,3c0,2-1.8,4.2-1.8,4.2s-9.7,1.8-13.9,11.1c-4.2,9.3-6.7,10.9-6.3,24.2c0.4,13.3,3,24.2,3,24.2l2.2,19.8l1.8,32.9
		c0,0,1.6,23.8,1,30.7c0,0,5.1,5.3,9.5,6.5c0,0,1.8,8.5,1.8,9.1c0,0.6,2.6,6.3,2.2,8.3c-0.4,2-3.4,7.5-2.6,10.1
		c0.8,2.6,2.4,6.9,2.4,8.7c0,1.8-1.8,4.4-4.4,6.9c-2.6,2.4-3.4,10.3-3.4,13.7c0,3.4-1.4,14.5-2.2,18.4c-0.8,3.8-5.3,14.8-5.3,16.4
		c0,1.6-5.5,6.1-4.6,9.7c0.8,3.6,1,8.1,0.2,10.1C1322.8,336.9,1321.2,339.9,1320.4,340.9z"/>
</g>
</svg>
