<svg id="_x2014_ÎÓÈ_x5F_2" xmlns="http://www.w3.org/2000/svg" viewBox="0 0 1463.3 357.7"><style>.st0{fill:#FFFFFF;}</style><path class="st0" d="M49.3 331.2s.8 5.7 1.5 7.5c.7 1.8.7 2.7.4 3.1-.3.4-1.6 4.1 1.1 4.9 2.7.8 14.9 1.2 17.8.5 0 0 4.5-1.5 4.8-2.5.3-1 .3-1.9-3.3-2.2-3.6-.3-10.9-3.4-10.9-3.4s-.4-20.8-1.5-24.2c0 0 2.3-6.7 1.9-8.6 0 0-4-13.4-4.8-14.6 0 0 .4-1 .4-2.9 0 0-.7-9.2-1.8-11.1-1.1-1.9-1.8-1.2-1.8-1.2s5.1-7.3 6.2-14c1.1-6.7 3.1-21.9-10.5-35.3l.1-1.6s3 1.2 6.7.3c0 0 1.6-1 1.9-2.1l1.5-1.4.7-1.9s3.7-3.3 2.2-5.9c0 0-1.4-3.8.7-5.2 0 0 4-7.9-2.3-15.2 0 0-8.6-9-20.4-8.2 0 0-12.7 3-12.4 17.2 0 0 1 5.6 3.1 9.6 0 0 2.9 4.9 1.1 8.5 0 0-4.5 4.5-7.8 12.6 0 0-3 7.3-3.1 10 0 0-1.2 3.7 3.4 8.1l3.4 1.9-1 3.6s-5.6.4-7.5 3c0 0-.7 2.1.1 2.3 0 0-.1 2.9 1.8 3.6 0 0 .8.1 1-1.2 0 0 5.2.7 6.3-.4l1.1.1-.1 1.1s-5.1.3-7.8 6.6c0 0-6.6 12-1.2 20.8l1.1 1.8.4 7.9s-.4 4-1.6 4.4c0 0-5.9 1-10.4 8.3 0 0-4.1 7.4-5.5 8.9 0 0-3.4-.3-4.1 3 0 0 .3 1.8.5 4.1 0 0 .4 4.8.1 7.1 0 0 1 4.1 2.5 6.2 0 0 4.1 2.7 7.4 3 0 0 3.4.7 3.6-1 0 0-1.5-3.7-1.8-5.3 0 0-1.8-7.3-.3-9.9 0 0 6-9.8 14.5-14.2 0 0 5.5-2.1 7.4-5.7l3.3-9.3s2.1.4 4.8 0c0 0 3.8 4.2 5.1 7.3 0 0 1.8 3.6 1.1 4 0 0-2.7 5.2-.1 13.3l1 3.9zM214.3 329.3s10.9 18.1 12.7 19.9c0 0 7.6-.8 10.4 0 0 0 1.7-2-.6-5.1l-3.6-4.9-2.8-4.9s7.4-10 13.5-14l12.3-8.4s6.9-3.1 5.9-9.2l.8-4.3 3.6-.3.3-4.3 2 4.6-.8 1.8 4.1.8h3.3s-4.1 11-3.6 21.7v7.7l-1.5 2s-2 4.1-1.5 6.9l2.3 2.3s23 1.8 26.6 1l4.1-.8s-3.3-7.2-11.5-10l-8.4-.8s5.9-19.3 5.1-24.6c0 0 2.8-5.5 1.3-10.1h2.6s-1.3-18.3-7.5-24.1l-1.3-3.8 2.7-.6.5-20.2 6.9 1.8s6.9 5.6 7.7 7.9c0 0 3.3 1.8-.5-6.6 0 0 4.6 1.5 4.6 6.6 0 0 1.5 1.8 1.5-1.5 0 0-1.3-6.1-3.8-7.4 0 0 4.6.3 7.9 4.9 0 0 1.3-.8-.3-4.9 0 0-3.3-3.3-9.4-4.9l-11.8-7.4-3.3-31.9s-3.6-9.7-5.6-12.5l-3.9-3 .1-2.3s3.5 1.5 6.8.5c0 0 1.8-1.8 1.8-4.3l1.2-2.4.1-3 3.2-1.5-1.8-5.9s-.6-4.3 1.6-6.5c0 0 1.3-9.2-4.4-14.7-8.8-8.4-22.7-10.5-29.6-.1-6.8 10.2-2 16.8.3 21.9 0 0 2.9 2.9 5.2 4.7l.8 4.5-1.9 2.7s-8.1 7.2-11.1 19.7c0 0-6.5 49-9.1 57.1l-2.3 13s-1.3 1.5 10.5 0c0 0-5.4 14.8-4.3 21.7l4.9 1.5s1.8 2.3-2.6 7.9c0 0-6.9 0-21.2 20.2-.2.1-9.4-2.2-9.2 5.9zM405.9 316s3.8 10.9 5.7 12.8c0 0 6.1 1.8 6.5 9.7 0 0 6.9 12.1 15.8 16.6 0 0 4.2-3.8 4.9-6.7 0 0-2.2-8.1-3.8-9.7 0 0 3.8-3.8 4.7-6.3 0 0 2.2-2.2 5.9-3.4 0 0 10.5-7.9 16-16.4 0 0 8.5-11.1 13.6-15.2 0 0 15.2-18.8 17.4-22.1l7.9-10.3s4.9 5.7 6.7 12.4c0 0 1.3 8.7 3.6 13.4.1.3.3.5.4.8 2.6 4.5 2.2 4.3 4.3 10.1 0 0 3.8 5.5 5.9 7.3 2 1.8.2 1.8-.2 4.9-.4 3-2.6 4.3-1 5.9 1.6 1.6 1.4 4 1.4 4.7v4.3l1 14s9.9.8 13 .8c.6 0 3-4.1 7.7.2 0 0 19-.2 24.5-3.8 0 0-.4-8.5-13.2-8.3l-3.8-8.3s2.2-5.5-1.8-8.5-5.5-6.9-5.5-10.1c0-3.2-3.8-22.9-3.8-25.3s.8-5.7-.8-10.9c-1.6-5.3-3-11.5-5.9-15.4-2.8-3.8-3.6-3.8-4.7-5.7-1-1.8-2.2-7.9-4.3-8.5-2-.6-2.2-2.8-2.8-4.9-.6-2-2.4-6.9-2.4-6.9s-.2-9.9.4-13.4c.6-3.4 3-11.7 3-11.7s8.1 3.6 10.3 4c2.2.4 7.5-.4 9.1 1.6 0 0 1.2 1.4 2.6-.4 1.4-1.8.8.2.8.2s2.8-4.9 2.8-6.5c0 0 1.6-1.4 1.8-2.8.2-1.4-.4-5.1-6.3-4.9 0 0-8.9.4-11.9 2.4 0 0-2 .6-3-.8l-4.9-4s4.3-19.6-3-34c0 0-2.3-6-8.2-11.3l.2-1.1s9 2.6 10.8.7c0 0 .5-2.3.4-3.5-.2-1.2.9-2.1 1.4-2.1.5 0-.4-1.6-1.4-1.9 0 0 2.3-2.1 3-2.3l-.5-2.1 2.5-2.1s.2-1.4-.7-2.3c0 0-2.5-3.7-.4-5.3 0 0 1.6-6.5-.7-10.8 0 0 1.6-2.6.7-3.7-.9-1.1-.2-2.1-2.8-3.7-2.7-1.6-3.7-.5-5.7-2.1-1.9-1.6-5.8-.5-7.8-2.8-1.9-2.3-6.4-1.1-13.8.7s-11.3 11.3-11.3 15.7c0 4.4 6.7 19.9 8.9 21.7l1.2-.2-.7 3.2s-11.6 2.2-12.2 4c-.6 1.8-12.4 3-13 4.9 0 0-10.1 16-9.5 22.7 0 0 1 15.8 1 23.1 0 0 1 19 17.4 22.5 0 0-2.2 13.8-4.9 29.2 0 0-2.4 15-5.7 19.6 0 0-10.7 7.1-14 10.5-3.2 3.4-6.7 7.5-9.9 10.5s-9.7 8.3-13 12.4c-3.2 4-6.9 7.9-8.3 8.3-1.6 0-16 4.7-17.6 6.7zM711.7 318.2s3.4 5.3.9 10.2c0 0-6.8 10.8-.9 16.4 0 0 20.8 1.9 27 1.9 0 0 24.5-.3 26-2.8 0 0 2.8-5.3-7.4-6.8 0 0-12.7-1.2-16.1-6.8 0 0-3.7-8.1-1.5-11.2 0 0 5.3-5.6 4-16.4 0 0-7.1-31.9-5.9-35 1.2-3.1 1.9-3.4 2.8-5.6.9-2.2 1.2-26 1.2-30.7 0-4.6.9-18 .9-20.5s2.5-.6 2.5-.6-3.1-41.5-2.2-45.6l10.8-.6s7.7 2.2 11.8 1.9c0 0 6.5-3.1 9-4.6 0 0 3.1-2.8 2.8-3.7l-.3-.9 11.2-8.1s.6-3.4.3-5l-13.9 11.2s.6-4.6-2.2-5c0 0-8.7-3.1-13.3-1.9 0 0-12.4 0-14.6-2.2 0 0-.3-20.8-.6-23.6-.3-2.8 6.8-17.4 6.8-17.4s-9.6-11.8-13.3-13.9l-1.9-2.2 1.2-4.3s3.4 0 4.6 1.5c0 0 1.9 4.3 4 4.6 0 0 4-.9 4.3-3.1l1.9-.6 1.2-1.5 1.2-.3.6-1.9 4.6-.3-.3-5.6 1.5-5s1.9 2.8 1.9 5c0 0 2.8.3 3.7-4 0 0 1.2 5.9 1.2 7.4 0 0 5.9-14.6 3.7-24.2S756.6 30.1 737.1 40c-19.5 9.9-14.9 24.5-16.7 34.1l2.5.9-4.3 5.3s-16.4 8.7-19.5 14.3l-2.2 4.3s-20.1 10.2-23.2 16.7c0 0-4 17.7-5 20.8 0 0-6.8 16.1-6.5 23.6.3 7.4.9 19.8 5.3 24.8 4.3 5 21.7 9.9 25.1 10.8 3.4.9 4.3 10.2 4 17-.3 6.8-2.2 14.9-.3 19.2 1.9 4.3 6.5 12.7 6.5 12.7s1.5 5.6-3.7 10.2c0 0-39.1 35-44.3 36.6-5.3 1.5-16.1 5-20.1 9s5.6 14.6 9.6 19.5c4 5 4 16.1 17 23.2 0 0 8.1 2.2 8.1-4.6 0-1.2-4.3-13.6-6.5-18 0 0 13.8-8.3 22.6-13.6 1.5-.9 20.5-18.3 22.9-22.3.2.2.5 26.9 3.3 33.7zM999.4 147.1l.6.1s-1-.5-.6-.1z"/><path class="st0" d="M1026.7 339.8s-14.1-.2-18.2-2.3c0 0-8.5-3.7-11.8-11.8 0 0-6-19.6-6.6-22.1s-6.8-8.7-7.9-9.7c-1-1-1.4-3.9-1.2-6.4.2-2.5-3.3-8.9-3.7-11.2-.4-2.3-3.5-9.3-4.1-11.4-.6-2.1 2.3-5.4 1.9-8.7-.4-3.3-3.3-15.5-3.3-20.7s-2.1-36.6-2.1-36.6l10.5-.6s4.1-.2 4.8-3.3c.6-3.1-7.2-38-6.6-42.4l7 6s5.6 1 6.2-1.2c.6-2.3 3.1.2 3.7 2.1l4.5 4.3s1.2.6 1.7-1.9l1.2-8.3s1-3.9-1.9-5.8c-.8-.5-1.2-.8-1.4-1l-6.2-1.5v-1.7s-11.4-10.3-18.8-14.7c0 0-10.1-39.5-16.3-47.5 0 0-4.1-11.2-4.5-11.8-.4-.6-5.2-10.3-5.2-10.3s1-8.1 1.2-9.1c0 0 5.8-.4 9.9-1.2 0 0 2.3-2.3.4-5.4l-.4-2.1.6-2.9.4-4.5s2.8-.8 3.1-1.7c.3-.9-.6-2.3-1.4-3.1l-.8-.8-3.7-3.1s.4-3.7 0-5l-2.3-6.2s3.5-2.7 1.4-5.6c0 0-12.6-15.5-32.2-5.8 0 0-15.7 9.9-4.5 30.4l6.4 9.7.2 3.5s-2.1 5.6-3.5 6.2c0 0-9.5 2.9-12.2 8.7 0 0-7.4 10.5-8.1 15.1 0 0-2.1 10.7-2.1 13.8 0 3.1-1 8.7-1 8.7s-2.7 3.5-1 8.7c0 0 .6 7.2.4 8.7-.2 1.4-3.1 10.1-2.3 15.3.8 5.2-.2 27.9-.2 27.9l-6.6 34.9 6.8 1.9s-7.6 5.4-8.9 9.1l-21.9-7.9s-3.3.4-4.3 2.9L842.4 254s-1.4 4.1 2.9 5.8l31.6 9.9-5 15.1s-2.7 13.8-4.5 15.9c-1.9 2.1-6.6 8.9-6.6 8.9s-3.1 8.1-4.8 11.4c-1.7 3.3-4.8 20.7-4.8 20.7s13.6 5.4 17.1 6c0 0 3.3-3.1 6.2-.4 0 0 4.3 3.3 7.2 3.3l20.7-1.4s3.3-1.9 4.8-3.1c1.4-1.2-1-3.9-2.9-5-1.9-1-13.8-.6-13.8-.6l-6.8-9.3s1.7-3.3 2.1-4.1c.4-.8 0-9.5 0-9.5s18-22.7 21.5-34.9l.8-1.7 7.6 3.3s4.8 2.7 7.4-1.2l12.6-31.4 13.6 27.9 18.6 44.4s4.8 6 4.5 8.5c-.2 2.5-.6 12 0 13.8.2.6 2.7 5.4 2.7 5.4s33.3 4.1 46.5-1.9l7.9-4.1c.1-.1-1-5.7-2.8-5.9zm-124-127.9l-8.5-3.7s0-4.1 3.7-3.7l6.2 3.9-1.4 3.5zM1153 245.1l7 12.2s2.1 4.6 3 6.7c.9 2.1 2.7 7.9 4.3 10 1.5 2.1 4 7.9 4.9 11 .9 3 1.5 6.4 3.7 10 2.1 3.7 3.7 11.6 5.8 14 2.1 2.4 9.4 14.3 10.1 17.4.6 3-2.7 4.6-3 7.6-.3 3 1.5 7.9 1.5 10.1 0 2.1-.6 10-.6 10s17.4 2.1 18.6 1.2c1.2-.9 4-.9 5.2-.9 1.2 0 12.5-2.1 17.4-3.4 4.9-1.2 14.3-4.6 14.3-4.6s1.2-6.1-.9-7c-2.1-.9-11.3 0-13.4-.6-2.1-.6-4-2.7-5.2-3-1.2-.3-3.7-1.5-3.7-1.5s-6.1-4.3-6.7-5.8c-.6-1.5-2.4-12.2-2.4-12.2l-8.5-35.9-4.3-11.6-1.5-9.4 2.1-6.4-.6-2.1-1.5-8.2-1.8-4.3-1.5-6.4-2.1-12.2-.6-4.9.6-4.9-1.5-6.7.6-4s.3 1.2 2.7 0c2.4-1.2 3 .9 4 .3.9-.6 4.6-1.8 4.9-5.2.3-3.3-1.8-5.8-3.7-7.3-1.8-1.5-8.8-5.2-8.8-5.2l-1.2-5.5s-3.3-7.6-3.3-8.8c0-1.2 5.5-6.1 6.7-11 1.2-4.9 2.4-19.8-1.8-29.2 0 0 .6-10.4.6-14.9 0-4.6-5.8-26.2-6.4-28.3l-.6-2.1 4.3-10-2.7-3.7s3-6.7 8.5-7.6c0 0 2.4.3 2.1-4l.3-1.8-.9-1.5 1.5-.9 1.2-3.3s1.2-1.5 2.1-.9c0 0 2.4-.6 1.8-3.7l-1.5-3.7.6-1.8.3-5.8s6.1-.3 10-1.5l1.8-3.4-12.8-4.9s-6.4-8.5-11.6-10.1c-5.2-1.5-11.6-3.7-18.9 0-7.3 3.7-13.1 11-12.8 20.7.3 9.7 0 11.6.3 14 .3 2.4-5.2 6.1-5.2 6.1s-10 2.1-18 18.3c0 0-6.1 11.3-7.9 29.5 0 0-.3 21.6-1.2 23.5-.9 1.8-2.7 8.2-3.3 11-.6 2.7-.6 6.1 0 10 .6 4 .6 7.9-1.2 10.7-1.8 2.7-4.3 4-7.9 12.2-3.7 8.2 0 24.1.6 32.3.6 8.2.3 11.6 0 15.8-.3 4.3-1.5 10-3.3 15.5-1.8 5.5-6.1 22.2-7.9 26.2-1.8 4-8.5 13.4-8.5 16.4 0 3-2.4 16.8-2.4 16.8s-1.5 10.7-2.1 14.9c-.6 4.3-9.7 11.6-9.4 12.5.3.9-.3 10.7-.3 10.7l-4.9 6.7 8.5 7.6s6.1.6 7.9 3.3c1.8 2.7 16.4 3.7 30.8 2.1 0 0 2.1-4.3-.3-6.7-2.4-2.4-12.5-4-14.6-10.7l3.3-8.2s-1.2-5.8.6-9.1c1.8-3.3 11-13.1 11-13.1s19-30 29.7-57.4zM1320.4 340.9s-2 5.5-2.2 6.7c-.2 1.2-1.4 7.9-1.4 7.9l7.7 2h13.7l16 .2 6.1-.2s.8-5.3-.8-6.9c-1.6-1.6-9.3-3.6-9.3-3.6l1.8-13.5 13.7-31.3 3.2 26.9 2.6 2.2-.6 5.3-2 3.2s-1.4-1-1.8 2.6c-.4 3.6-.4 11.3-.4 11.3s28.3-1 28.9-1.2c.6-.2 22.8-.6 22.8-.6l1.6-1.8-1.2-5.3s-12.7-1.6-15.2-3c0 0-6.7-11.1-8.5-12.9 0 0 0-3.6.8-5.3 0 0 5.3-5.5 6.1-8.5.8-3 .8-21 1-25.5.2-4.4-2-23-2.2-27.7-.2-4.6-5.1-21-5.1-23.6 0-2.6 0-6.7.4-8.1.4-1.4.8-14.3.8-14.3s1.6 1.8 2.8-.2c1.2-2-2.4-22-2.4-22l-1.4-12.7 7.3 18.6 23.4 58.6 30.1 77.2-1 1.6 1.8 4s4.6 1.6 5.7-1.8l-2.2-4.9-1 .4-20.2-52.5-19.6-51.1L1399 178l1.4-.2s1 1 2.6.4 2.2-3.8 2.2-3.8l2.6-1s1.4 2 .6 7.7c0 0 1.4 4 3.6.8 0 0 1.8-8.1-2-13.3 0 0-.4-1.8-4.2-5.5 0 0-.6-2-5.9-1.2l-5.9.4s.8-9.3-3.4-20.8c0 0-5.5-24.7-9.7-32.1l-5.5-13.3v-4.6s5.5 1.8 9.5-2.4c0 0 3.4-2.4 2.6-8.9l-.4-1.8-1.2-1.4 1.6-1.4s2.2-3.4 1.2-4.6c0 0 .8.6 2.4-1 0 0 2-1.2.6-5.1l-2-4.4s0-3.2 1-3.8l-.2-4.8s3.6-.4 3.6-2.4-1-9.3-19.6-14.8c0 0-4.9 0-6.9-.6s-6.9-1-10.1-.4c-3.2.6-7.3.8-7.7 3.2-.4 2.4-.8 5.5-.6 6.9.2 1.4.2 4.6.2 4.6s-2.4 12.5-.8 15.6l1.4 3s-6.3 1-6.3 3-1.8 4.2-1.8 4.2-9.7 1.8-13.9 11.1c-4.2 9.3-6.7 10.9-6.3 24.2.4 13.3 3 24.2 3 24.2l2.2 19.8 1.8 32.9s1.6 23.8 1 30.7c0 0 5.1 5.3 9.5 6.5 0 0 1.8 8.5 1.8 9.1 0 .6 2.6 6.3 2.2 8.3-.4 2-3.4 7.5-2.6 10.1.8 2.6 2.4 6.9 2.4 8.7 0 1.8-1.8 4.4-4.4 6.9-2.6 2.4-3.4 10.3-3.4 13.7 0 3.4-1.4 14.5-2.2 18.4-.8 3.8-5.3 14.8-5.3 16.4 0 1.6-5.5 6.1-4.6 9.7.8 3.6 1 8.1.2 10.1-.5 1.9-2.1 4.9-2.9 5.9z"/></svg>